<?xml version="1.0" encoding="utf-8"?>
<?xml-stylesheet type="text/xsl" href="rss1.xsl"?>
<rss version="2.0" xmlns:atom="http://www.w3.org/2005/Atom" xmlns:content="http://purl.org/rss/1.0/modules/content/" xmlns:dc="http://purl.org/dc/elements/1.1/" xmlns:media="http://search.yahoo.com/mrss/">
<channel>
 <title>sharemania</title>
 <link>http://www.sharemania.us/</link>
 <atom:link href="http://www.gettyimg.com/" rel="self" type="application/rss+xml" />

 
                <item>
                <title><![CDATA[【HD Live Performances】HDTV - Lady Gaga - The Edge of Glory (American Idol 2011) 1080p.ts]]></title>
                <link><![CDATA[https://sharemania.us/threads/lady-gaga-the-edge-of-glory-american-idol-2011-1080p-ts.282367/]]></link>
                <description><![CDATA[<article>
				<blockquote class="messageText SelectQuoteContainer ugc baseHtml">
					
					<b>Lady Gaga - The Edge Of Glory (Live American Idol 2011) It’s 720p, not 1080p.</b><br>
<br>
Format                                   : MPEG-TS<br>
File size                                : 491 MiB<br>
Duration                                 : 4 min 35s<br>
Overall bit rate mode                    : Variável<br>
Overall bit rate                         : 14.9 Mb/s<br>
Frame rate                               : 59.940 FPS<br>
Title                                    : American Idol<br>
Law rating                               : TV-PG (DL)<br>
<br>
Vídeo<br>
ID                                       : 17 (0x11)<br>
Menu ID                                  : 3 (0x3)<br>
Format                                   : MPEG Video<br>
Format version                           : Version 2<br>
Format profile                           : Main@High<br>
Format settings                          : BVOP<br>
Format settings, BVOP                    : Sim<br>
Format settings, Matrix                  : Padrão<br>
Format settings, GOP                     : M=3, N=15<br>
Codec ID                                 : 2<br>
Duration                                 : 4 min 35s<br>
Bit rate mode                            : Variável<br>
Bit rate                                 : 13.7 Mb/s<br>
Maximum bit rate                         : 20.0 Mb/s<br>
Width                                    : 1 280 pixels<br>
Height                                   : 720 pixels<br>
Display aspect ratio                     : 16:9<br>
Active Format Description                : Letterbox 16:9 image<br>
Frame rate                               : 59.940 (60000/1001) FPS<br>
Color space                              : YUV<br>
Chroma subsampling                       : 4:2:0<br>
Bit depth                                : 8 bits<br>
Scan type                                : Progressivo<br>
Compression mode                         : Lossy<br>
Bits/(Pixel*Frame)                       : 0.249<br>
Time code of first frame                 : 00:00:00:00<br>
Time code source                         : Group of pictures header<br>
GOP, Open/Closed                         : Open<br>
GOP, Open/Closed of first frame          : Closed<br>
Stream size                              : 452 MiB (92%)<br>
Writing library                          : (c) 1998-2010 Womble Multimedia, Inc. / MPEG Video Wizard DVD 5.0.0.114 (01/2010) / Dec 10 2010<br>
<br>
Áudio<br>
ID                                       : 20 (0x14)<br>
Menu ID                                  : 3 (0x3)<br>
Format                                   : AC-3<br>
Format/Info                              : Audio Coding 3<br>
Commercial name                          : Dolby Digital<br>
Codec ID                                 : 129<br>
Duration                                 : 4 min 35s<br>
Bit rate mode                            : Constante<br>
Bit rate                                 : 448 kb/s<br>
Channel(s)                               : 6 canais<br>
Channel layout                           : L R C LFE Ls Rs<br>
Sampling rate                            : 48.0 kHz<br>
Frame rate                               : 31.250 FPS (1536 SPF)<br>
Compression mode                         : Lossy<br>
Delay relative to video                  : 16 ms<br>
Stream size                              : 14.7 MiB (3%)<br>
Service kind                             : Complete Main<br>
Dialog Normalization                     : -24 dB<br>
compr                                    : -0.28 dB<br>
cmixlev                                  : -3.0 dB<br>
surmixlev                                : -3 dB<br>
dmixmod                                  : Lo/Ro<br>
ltrtcmixlev                              : -3.0 dB<br>
ltrtsurmixlev                            : -3.0 dB<br>
lorocmixlev                              : -3.0 dB<br>
lorosurmixlev                            : -3.0 dB<br>
dialnorm_Average                         : -24 dB<br>
dialnorm_Minimum                         : -31 dB<br>
dialnorm_Maximum                         : -24 dB<br>
<br>
Texto #1<br>
ID                                       : 17 (0x11)-CC1<br>
Menu ID                                  : 3 (0x3)<br>
Format                                   : EIA-608<br>
Muxing mode                              : A/53 / DTVCC Transport<br>
Muxing mode, more info                   : Muxed in Video #1<br>
Duration                                 : 4 min 35s<br>
Start time                               : 434 ms<br>
Bit rate mode                            : Constante<br>
Stream size                              : 0.00 Byte (0%)<br>
Count of frames before first event       : 178<br>
Type of the first event                  : RollUp<br>
<br>
Texto #2<br>
ID                                       : 17 (0x11)-1<br>
Menu ID                                  : 3 (0x3)<br>
Format                                   : EIA-708<br>
Muxing mode                              : A/53 / DTVCC Transport<br>
Muxing mode, more info                   : Muxed in Video #1<br>
Duration                                 : 4 min 35s<br>
Bit rate mode                            : Constante<br>
Stream size                              : 0.00 Byte (0%)<br>
<br>
<br>
<br>
<br>
<br>
<br>
<br>
<br>
<br>




<div class="bbCodeBlock bbCodeVfcHH HiddenContent">
	<div class="attribution type">Hidden Content:</div>
	<blockquote>You must either reply or click 'Like' to see the hidden information contained here.</blockquote>
</div>
					<div class="messageTextEndMarker">&nbsp;</div>
				</blockquote>
			</article>]]></description>
                <author><![CDATA[Naner77]]></author>
                </item>

                </channel></rss>